<svg xmlns="http://www.w3.org/2000/svg" viewBox="0 0 184.78 49.87"><defs><style>.cls-1{fill:#233365;}</style></defs><g id="Слой_2" data-name="Слой 2"><g id="Слой_1-2" data-name="Слой 1"><path class="cls-1" d="M0,8.71V41.15a8.71,8.71,0,0,0,8.71,8.72H26.35V44.1H8.54a2.78,2.78,0,0,1-2.78-2.77V8.54A2.79,2.79,0,0,1,8.54,5.76H27.32A2.78,2.78,0,0,1,30.1,8.54v4.77h5.69V8.71A8.71,8.71,0,0,0,27.08,0H8.71A8.71,8.71,0,0,0,0,8.71Z"/><path class="cls-1" d="M30,36.5H25.39a8.4,8.4,0,0,1-5.64-2.35,7.25,7.25,0,0,1-2.84-5.57V20h5.91v8.37a2,2,0,0,0,.8,1.6,2.8,2.8,0,0,0,1.9.69h1.77A2.86,2.86,0,0,0,29.23,30a2,2,0,0,0,.8-1.6V20h5.76V44.1A5.76,5.76,0,0,1,30,49.87h0Z"/><path class="cls-1" d="M53.61,17.93c-.56,1-1.89,1.44-4,1.44a6,6,0,0,1-3.92-1,3.25,3.25,0,0,1-1-1.5,12.32,12.32,0,0,1-.23-2.81V7.92h2.26v6.14A5.91,5.91,0,0,0,47,16.27a1.58,1.58,0,0,0,1,.81,8.07,8.07,0,0,0,2.3.23,6.41,6.41,0,0,0,2.16-.25,1.5,1.5,0,0,0,.9-1,6.93,6.93,0,0,0,.23-2.19v-6h2.26V23.43H53.63V18Z"/><path class="cls-1" d="M60.62,14.45H62l5.46-6.53h2.87L64,15.46l7.08,8h-3L62,16.53h-1.4v6.9H58.35V7.92h2.27Z"/><path class="cls-1" d="M75.28,20.32l-1,3.11h-2.4L77,7.92h3.31l5.25,15.51H83.23l-1-3.11ZM78.72,9.78,75.86,18.5h5.77Z"/><path class="cls-1" d="M99.86,23.43H97.59V9.94H91.34v7.14a14.72,14.72,0,0,1-.27,3.29,4.22,4.22,0,0,1-1,1.86,4.74,4.74,0,0,1-3.44,1.34v-2a2.3,2.3,0,0,0,1.93-1.05,7.32,7.32,0,0,0,.51-3.28V7.92H99.86Z"/><path class="cls-1" d="M112.48,8.29c1.25.56,2,1.76,2.27,3.6a28.24,28.24,0,0,1,.13,3.49,29.43,29.43,0,0,1-.27,4.89A3.65,3.65,0,0,1,112.53,23a11,11,0,0,1-4,.53,11.19,11.19,0,0,1-4.26-.56,3.59,3.59,0,0,1-2-2.71,23.89,23.89,0,0,1-.29-4.61c0-3,.26-5,.8-5.91A3.78,3.78,0,0,1,105.44,8a17.37,17.37,0,0,1,3.07-.18A10.67,10.67,0,0,1,112.48,8.29Zm.11,5.18c0-1.72-.34-2.8-1-3.22a8.1,8.1,0,0,0-3.4-.42,8.19,8.19,0,0,0-2.65.28,1.9,1.9,0,0,0-1,1.23,20.88,20.88,0,0,0-.26,4.35c0,1.92,0,3.15.11,3.68a2.15,2.15,0,0,0,1.16,1.85,9,9,0,0,0,2.93.31,6.39,6.39,0,0,0,3.2-.49c.64-.47,1-1.55,1-3.24Z"/><path class="cls-1" d="M117,7.92h6.93a6.22,6.22,0,0,1,3,.49c.93.55,1.4,1.75,1.4,3.6a4.58,4.58,0,0,1-.44,2.28,2.65,2.65,0,0,1-1.6,1.07v0a3,3,0,0,1,1.92,1.09,5,5,0,0,1,.52,2.62,4.77,4.77,0,0,1-.95,3.36,4.67,4.67,0,0,1-3.33,1H117Zm6.15,6.68a4.75,4.75,0,0,0,2.18-.33c.5-.3.76-1,.76-2.12s-.26-1.76-.76-2a4.19,4.19,0,0,0-1.65-.21h-4.41V14.6Zm-.58,6.84a10.3,10.3,0,0,0,3.09-.29c.54-.27.82-1,.82-2.11s-.28-2.06-.84-2.35a7.76,7.76,0,0,0-2.45-.23h-3.92v5Z"/><path class="cls-1" d="M142.65,18.08v.54c0,1.87-.29,3.13-.87,3.77a3.29,3.29,0,0,1-2.06,1,19.32,19.32,0,0,1-3.22.16,9.13,9.13,0,0,1-4-.62c-1.17-.64-1.83-1.95-2-3.93-.09-.94-.13-2.36-.13-4.29a20.25,20.25,0,0,1,.24-3.8,3.61,3.61,0,0,1,1-1.83A3.92,3.92,0,0,1,133.59,8a19.81,19.81,0,0,1,3.84-.26,7.29,7.29,0,0,1,3.54.6,3.31,3.31,0,0,1,1.44,2.75q.06.72.09,1.74h-2.27a4.28,4.28,0,0,0-.52-2.56,4,4,0,0,0-2.49-.48c-2,0-3.23.19-3.71.59s-.72,1.4-.72,3q0,5.81.38,6.79a1.73,1.73,0,0,0,1,1,8.05,8.05,0,0,0,2.4.25,6.77,6.77,0,0,0,3.21-.46q.66-.46.66-2.25c0-.25,0-.5,0-.74Z"/><path class="cls-1" d="M146.76,14.45h1.4l5.46-6.53h2.86l-6.37,7.54,7.08,8h-3l-6.06-6.9h-1.4v6.9h-2.27V7.92h2.27Z"/><path class="cls-1" d="M161.42,20.32l-1,3.11H158l5.17-15.51h3.31l5.25,15.51h-2.36l-1.05-3.11Zm3.44-10.54L162,18.5h5.77Z"/><path class="cls-1" d="M182.51,23.43V17.75H178a2.8,2.8,0,0,0-1.88.52,2.58,2.58,0,0,0-.63,2v3.13H173.2V19.78c0-1.87.82-2.87,2.45-3v-.07a3,3,0,0,1-2.08-1.16,6.28,6.28,0,0,1-.54-3.1,4.87,4.87,0,0,1,1-3.52,4.91,4.91,0,0,1,3.55-1h7.18V23.43Zm0-13.47h-4.78a3,3,0,0,0-1.8.4,1.43,1.43,0,0,0-.48.82,8.2,8.2,0,0,0-.13,1.78,5.06,5.06,0,0,0,.18,1.59,1.56,1.56,0,0,0,.7.81,4.11,4.11,0,0,0,1.91.35h4.4Z"/><path class="cls-1" d="M56.71,38v.53c0,1.87-.29,3.13-.87,3.77a3.32,3.32,0,0,1-2.06,1,19.32,19.32,0,0,1-3.22.16,9,9,0,0,1-4-.62c-1.17-.64-1.83-2-2-3.93-.09-.93-.13-2.36-.13-4.28a21.65,21.65,0,0,1,.23-3.81,3.69,3.69,0,0,1,1-1.83A4,4,0,0,1,47.65,28a19.67,19.67,0,0,1,3.84-.26,7.32,7.32,0,0,1,3.54.6,3.31,3.31,0,0,1,1.44,2.75c0,.48.07,1.06.08,1.74H54.29a4.22,4.22,0,0,0-.52-2.55,3.94,3.94,0,0,0-2.5-.49c-2,0-3.22.2-3.7.59s-.72,1.4-.72,3q0,5.8.38,6.8a1.68,1.68,0,0,0,1,1,7.73,7.73,0,0,0,2.4.25A6.77,6.77,0,0,0,53.81,41c.44-.31.66-1.06.66-2.24,0-.26,0-.51,0-.74Z"/><path class="cls-1" d="M57.31,27.86h2.53l2.69,6.39c.4.94.82,2,1.24,3.29h.07q.25-.72.66-1.8c.27-.71.46-1.21.59-1.51l2.69-6.37h2.43L65,39.61a8.38,8.38,0,0,1-2,3.21,5,5,0,0,1-2.86.69h-.42v-2H60a3.14,3.14,0,0,0,1.65-.33,3.41,3.41,0,0,0,1-1.39Z"/><path class="cls-1" d="M83.18,27.86v13.5H85v5.11H82.76V43.38h-11v3.09H69.47V41.36h.33A2.26,2.26,0,0,0,72,40.24a7.23,7.23,0,0,0,.45-3.1V27.86Zm-2.26,13.5V29.88H74.66V37A9.24,9.24,0,0,1,74.32,40a2.49,2.49,0,0,1-1.26,1.39Z"/><path class="cls-1" d="M96.6,28.23c1.25.57,2,1.76,2.26,3.61A28,28,0,0,1,99,35.32a29.43,29.43,0,0,1-.27,4.89A3.65,3.65,0,0,1,96.64,43a10.76,10.76,0,0,1-4,.53A11.45,11.45,0,0,1,88.38,43a3.62,3.62,0,0,1-2-2.72,24.76,24.76,0,0,1-.29-4.61q0-4.52.8-5.91a3.8,3.8,0,0,1,2.68-1.82,17.37,17.37,0,0,1,3.07-.18A10.73,10.73,0,0,1,96.6,28.23Zm.11,5.18c0-1.72-.34-2.8-1-3.22a8.19,8.19,0,0,0-3.41-.42,8.07,8.07,0,0,0-2.64.28,1.88,1.88,0,0,0-1,1.23,20.16,20.16,0,0,0-.26,4.35,34.25,34.25,0,0,0,.11,3.68,2.13,2.13,0,0,0,1.16,1.85,8.64,8.64,0,0,0,2.92.31c1.72,0,2.78-.16,3.2-.49q1-.7,1-3.24Z"/><path class="cls-1" d="M101.1,27.86H108a6.22,6.22,0,0,1,3,.49c.94.55,1.4,1.75,1.4,3.6a4.56,4.56,0,0,1-.44,2.28,2.65,2.65,0,0,1-1.6,1.07v.05a2.86,2.86,0,0,1,1.92,1.09,4.91,4.91,0,0,1,.52,2.61,4.72,4.72,0,0,1-1,3.36,4.59,4.59,0,0,1-3.33,1H101.1Zm6.15,6.68a4.75,4.75,0,0,0,2.18-.33c.5-.3.76-1,.76-2.11s-.26-1.77-.76-2a4.19,4.19,0,0,0-1.65-.21h-4.41v4.68Zm-.58,6.84a10.3,10.3,0,0,0,3.09-.29c.55-.27.82-1,.82-2.11s-.28-2.06-.84-2.35a7.76,7.76,0,0,0-2.45-.23h-3.92v5Z"/><path class="cls-1" d="M117.1,34.49h7.2v1.83h-7.2v5.06h7.58v2h-9.85V27.86h9.81v2H117.1Z"/><path class="cls-1" d="M126.61,27.86h6.08a18.63,18.63,0,0,1,2.64.12,3.4,3.4,0,0,1,1.36.59q1.38,1,1.38,4.44c0,2.4-.65,3.88-1.93,4.44a11.55,11.55,0,0,1-3.49.39h-3.78v5.54h-2.26Zm5.84,7.93a4.8,4.8,0,0,0,2.74-.5c.39-.33.59-1.11.59-2.34a7.27,7.27,0,0,0-.19-2,1.25,1.25,0,0,0-.66-.84,5.34,5.34,0,0,0-2.09-.26h-4v5.93Z"/><path class="cls-1" d="M148.94,29.28a22.22,22.22,0,0,1,3.41.19,4.62,4.62,0,0,1,1.76.76,3.28,3.28,0,0,1,1.31,1.83,13.5,13.5,0,0,1,.36,3.64q0,4-1.29,5.1a4.13,4.13,0,0,1-1.62.87,12.73,12.73,0,0,1-2.8.26c-.4,0-.77,0-1.13,0v1.42h-2.42V42c-1.48,0-2.38-.05-2.71-.07q-3.1-.21-3.87-2.56a13,13,0,0,1-.39-3.63,14,14,0,0,1,.35-3.64,3.39,3.39,0,0,1,1.29-1.83,4.85,4.85,0,0,1,1.83-.76,23.37,23.37,0,0,1,3.5-.19V27.86h2.42Zm-2.42,1.88a22.21,22.21,0,0,0-2.73.14,2,2,0,0,0-1.6,1.07,10.07,10.07,0,0,0-.35,3.33,16.12,16.12,0,0,0,.14,2.51,2.27,2.27,0,0,0,.59,1.19,4.32,4.32,0,0,0,2.62.65h1.33Zm2.42,8.89c1.36,0,2.23,0,2.62-.11a2.09,2.09,0,0,0,1.57-1.06,9.07,9.07,0,0,0,.36-3.18,14.84,14.84,0,0,0-.16-2.68,1.9,1.9,0,0,0-.62-1.18,4,4,0,0,0-2.6-.65q-.71,0-1.17,0Z"/><path class="cls-1" d="M160,27.86v5.53h3.77a11.34,11.34,0,0,1,3.49.4q1.94.84,1.93,4.44c0,2.26-.46,3.74-1.37,4.43a3.32,3.32,0,0,1-1.36.59,16.85,16.85,0,0,1-2.65.13H157.7V27.86Zm0,13.52h4a5.37,5.37,0,0,0,2.09-.26,1.25,1.25,0,0,0,.66-.84,7.89,7.89,0,0,0,.18-2c0-1.22-.19-2-.58-2.33a4.8,4.8,0,0,0-2.74-.5H160Z"/></g></g></svg>